<?xml version="1.0" encoding="utf-8"?>
<!-- Generator: Adobe Illustrator 19.1.0, SVG Export Plug-In . SVG Version: 6.00 Build 0)  -->
<!DOCTYPE svg PUBLIC "-//W3C//DTD SVG 1.1//EN" "http://www.w3.org/Graphics/SVG/1.1/DTD/svg11.dtd">
<svg version="1.1" id="Layer_1" xmlns="http://www.w3.org/2000/svg" xmlns:xlink="http://www.w3.org/1999/xlink" x="0px" y="0px"
	 width="60px" height="30px" viewBox="0 0 60 30" style="enable-background:new 0 0 60 30;" xml:space="preserve">
<style type="text/css">
	.st0{fill:#F7B334;}
</style>
<g>
	<path class="st0" d="M57.1688194,13.9275408c0.9546318-0.6091814,1.8929024-0.8572912,2.4385681-0.4542608
		c-0.4977379-1.0879831-1.3227425-1.3043318-2.1191025-1.1793461c-0.0211868-0.0100412-0.0460625-0.0146818-0.0727997-0.0146818
		c0,0-0.0523758,0.0061245-0.0780106,0.0174589l-0.1478462,0.0614624c-0.3781166,0.0969572-0.7402954,0.2616882-1.0400581,0.4310665
		l-2.8003273,1.1613159l-0.0378838-0.0590315c0.3617973-1.2891178,1.8364182-1.8689394,2.6068001-1.8930922
		c-2.1551247-1.1089411-3.9937859,1.012558-4.2080803,1.8889837c-0.0794945,0.543992-0.1010628,0.9327202-0.0787697,1.2339659
		l-0.1117935,0.389451c0,0-0.4338379,0.6338701-1.7016182,1.0573263c-1.015522,0.3398514-1.7836571-1.1709785-3.4072685-2.6203794
		l-2.3983994-2.330431l0.3015862,0.1649246c0.2893791,0.297328,0.6088066,0.5612221,1.1355286,0.9152231
		c0.7867393,0.4531612,1.6748428,1.2300444,2.1670265,1.3892288c0.3966789-0.1411514,1.1459122-1.3362827,0.5738525-2.0140085
		c0.1036491-0.4267645,0.3146324-0.7374811,0.1073761-1.3054352c-0.2934494,0.2735548-0.5876198,0.5484419-0.7299118,0.860261
		c-0.9067039-0.3580713-1.5771675-0.9074259-1.6659431-1.9196405c0.6363068-0.1322136,2.2814407,0.1621475,3.285099,1.2963438
		c0.8219948,0.9367905,1.9088364,0.9271288,2.5722656,0.709487c0.6804657-0.2275324,1.1715126-1.3721123,0.9185715-1.7693987
		c-0.1905594,0.5202188-0.51334,0.8127155-0.871788,1.0510082c-0.8238602,0.5296936-1.9771919,0.0557261-2.6290932-0.6427679
		c-0.6136322-0.6632347-1.7034416-1.7034445-3.1970406-1.4287863c0.1415291-0.5679159,0.5582924-0.9263673,1.2670174-1.0407796
		c1.1637497-0.1047549,2.0143509,0.1144123,2.6093903,0.8314681c-0.0642471,0.4268017-0.2161636,1.0790443-0.2265854,1.552475
		c0.2659492-0.1142187,0.659317-0.6084204,0.8108902-0.874217c0.3379898,0.0664873,0.6656342-0.0157843,0.8650932-0.1654568
		c0.1693764-0.1432056,0.7090683-1.0995073,0.7569923-1.5058465c-0.1051292-0.0241532-0.2796783-0.1103048-0.4854927-0.2339978
		l0.1240768-0.2704363c0.2377243,0.1526766,0.4453621,0.2513041,0.6054573,0.2780433c0,0,0.3402328-0.0527558,0.602108-0.3775835
		c0.2585335-0.3242574,0.3216705-0.5870867,0.1600952-0.943294c-0.1619568-0.3576908-1.5555992-0.7466097-1.5555992-0.7466097
		h0.0014839c-0.3922653-0.2702079-0.8045769-0.5235281-1.2599449-0.7616334
		c-0.1991158-0.4148974-0.6251602-1.1043007-1.4085121-1.4174514c-0.6901627-0.331332-1.2592201-0.615119-1.6369896-0.8320384
		c-0.0757713-0.3121998-1.0125618-1.7404153-2.325985-1.9019926c-0.7012711-0.0202352-0.6503792-0.0742844-0.9245415,0.0202732
		c1.2573586,0.6530028,1.495842,1.5767844,1.4817314,2.0895481C44.883255,1.9994788,43.9587135,0.5347107,42.4989662,0
		c-0.659317,0.7115023-0.7938118,1.8310552-0.6890602,2.7189686c0.0561028,0.6622837,0.613636,1.0963509,1.1429443,1.5134542
		c-0.6061821-0.2278738-1.2332039-0.4219339-1.4694481-1.0948296c-0.1890373-0.6117716-0.2388268-1.1303172-0.0114861-1.7162623
		c-0.9178429,0.1705155-2.5210304-0.0451108-3.0013084-1.1325233c-0.1808624,0.3303811-0.0375061,1.313803,0.2726402,1.8445961
		c0.1021652,0.1526766,0.2236137,0.3029189,0.3580704,0.4503846c-0.9542084-0.1328218-2.7319717-0.3384066-3.6702499-0.4700873
		c0.1634407,0.6411319,1.6781883,1.1494491,1.6522141,2.3052089c-1.5645409-0.2015114-2.8066444-0.5077813-3.0135612-0.987298
		c-0.2722626,0.8572946,0.5749931,1.6932125,1.6154289,2.3393688c-1.1848946,0.8544798-2.3728027-0.6727057-2.8196487-0.6940475
		c0.2875175,0.838695,0.8257256,2.050755,1.5611877,2.2858558c-0.924881,0.2195439-1.626194,0.2089286-1.8776474-0.1929569
		c0.027462,0.86901,0.4769363,1.4848509,1.1042976,1.9116535c-1.5407639-0.5528917-2.2594891,0.291585-3.0016518,0.1552629
		c0.75144,0.8320351,1.9315109,1.2433987,2.592308,1.5676937c-1.3981266,0.4869375-3.1955204,1.0318422-3.5205383,0.5099878
		c0.0623779,2.0213871,3.0079651,1.5942421,3.9811554,2.3930378c-0.4780731,0.0845156-1.2057419,0.2015142-1.9482441,0.2707787
		c-2.0054493,0.1259375-3.7686863-0.7300644-3.7686863-0.7300644c-5.5631523-3.2813692-8.9574127-2.6699781-11.4130554-1.8520508
		c-1.0586214,0.3525181-2.1465664,1.4454803-2.7486773,2.2753162c-0.3788767,0.0254459-0.7963982,0.0438175-1.262188,0.0518045
		c-1.7576809,0.0313797-3.5198174-0.1294365-4.8414178-0.5883827c-1.321218-0.4587145-2.2022872-1.2136889-2.2022872-2.3709354
		s0.6444449-1.7366877,1.2888894-2.0282717c0.6437221-0.2880468,1.290031-0.2880468,1.290031-0.2880468
		c2.6799812,0,4.914979,0,7.280365,0.7367582c2.3675909,0.7341681,4.8637075,1.4711199,8.0718565,1.4711199
		c3.3827744,0,5.2117748-0.9475918,6.1938667-2.0197525c0.9824696-1.072011,1.1195526-2.2682447,1.1195526-2.7657905
		c0-0.7575641-0.1812801-1.7771583-1.0136986-2.6107183c-0.829792-0.8301747-2.3114891-1.4737065-4.9086285-1.4737065
		c-2.53438,0-4.423933,0.3649559-5.6942616,0.7373288c-0.8086472,0.1831436-2.6220531-0.9765375-2.7635822-1.8800837
		c-0.6552114,1.7855641,0.2800941,2.8449059,1.4088898,3.4446201c0.0642815,0.0651937,0.1322517,0.1287141,0.202467,0.1946306
		c-0.6277447-0.0974865-1.1136208-0.3331959-1.3639736-0.7323081c0.0973339,3.0976937,3.7315674,2.6608493,4.9027328,2.3592618
		c0.5389709-0.1920438,0.9460697-0.3653398,1.2577-0.5332274c0.6552467-0.1619573,1.2090511-0.4091535,1.7134857-0.6602297
		c0.8509808-0.4227324,1.5619144-0.845427,2.3902607-0.845427c0.8245831,0,1.4219017,0.1890774,1.8111629,0.5328431
		c0.3889217,0.3419099,0.5709209,0.8381662,0.5709209,1.4525242c0,0.2813907-0.0501709,1.1832633-0.7848721,2.0139709
		c-0.7365704,0.831316-2.1618195,1.5926065-4.909771,1.5926065c-2.7442627,0-5.3336048-0.8105097-7.8445539-1.6206431
		c-2.5080185-0.8101258-4.9406157-0.8838396-7.372448-0.8838396c-2.4307718,0-3.7319469,0.8181171-4.4218826,1.6876588
		c-0.6901617,0.8673363-0.7752125,1.7871962-0.7752125,1.9870415c0,0.1981678-0.1235032,1.4371157,1.0134704,2.6292763
		c1.114152,1.1671009,3.4407024,2.2866163,8.2813969,2.3299007l0.0148726,0.0016737
		c0.1002626,0.0046406,0.1797581,0.083375,0.1797581,0.1847792c0,0.0133886-0.0022058,0.0252562-0.0040693,0.0352974
		c-0.0141115,0.0371618-0.0222893,0.0573969-0.0222893,0.0573969c-0.2009449,0.4032202-0.631094,1.1945562-1.2562523,1.9865084
		c-0.8925562,1.1315727-2.1833477,2.263031-3.7764874,2.263031c-1.1076474,0-1.9857473-0.0349216-2.6587954-0.0828457
		c-1.1442382-0.132782-2.6051245-1.0521126-2.6051245-1.0521126s-0.0843282,0.1729126,0.3950021,0.9598026
		c0.0613141,0.1025066,0.1068051,0.1801376,0.1426351,0.2433128c-0.3359723,0.2937927-1.1583498,0.3387527-1.1583498,0.3387527
		H1.6538472H1.6001761c-0.097144,0.0068455-0.1740148,0.0878239-0.1740148,0.1870232
		c0,0.0499401,0.0122476,0.0831814,0.0441978,0.1186714l0.0089027,0.0096607l0.1591786,0.158041
		c0.072801,0.0737514,0.3149766,0.3556747,0.2588733,0.4684124c-0.0553424,0.1103058-0.5313255,0.0061245-0.5313255,0.0061245
		H1.0697635c-0.1021649,0.0005322-0.1855398,0.0837517-0.1855398,0.1875553c0,0.0495987,0.0194744,0.0962315,0.0527179,0.1276112
		l0.0026245,0.005743l0.1894195,0.1874046l0.1127388,0.113842c0,0,0.2328947,0.2797165-0.0898792,0.3956127l0,0H0.7475221H0.7343236
		c-0.1047512,0-0.186833,0.0844784-0.186833,0.1862621c0,0.0519924,0.0208079,0.1002979,0.0534787,0.1324043l0.0081778,0.0077972
		l0.2017052,0.2009811c0,0,0.3478396,0.5504589,0.0434774,1.1117191l-0.3034918,0.5616398l-0.5175945,0.9650116l-0.020083,0.0326729
		c-0.0076072,0.0219097-0.0131605,0.0462532-0.0131605,0.071888c0,0.1030788,0.0856213,0.1859207,0.1868331,0.1859207h0.3640049
		h0.6786391c0,0-0.0345367,0.7789021,0.3205678,1.6425114c0.343009,0.831316,1.0450402,1.737257,2.4821563,2.109251
		l0.042182,0.0055904c0.0843258,0,0.1532092-0.0573997,0.1769819-0.1333542l0.0068846-0.028223l0.0543914-0.2420235
		l0.1014042-0.4412556l0.9845247,0.1699448l0.812716,0.1396675c0.092504,0,0.1671686-0.0657635,0.1820407-0.1530571
		l0.0051727-0.0434361l0.0178413-0.3152046l0.0215263-0.344492c1.0482354,0.2223206,1.7770057,0.4119301,1.7242494,1.0296345
		c0.8654728-1.3765621-0.6463079-2.1192913-1.1923156-2.2934971c-0.2614975-0.1506233-0.5646067-0.3281746-0.8699198-0.5155411
		c-0.8558111-0.5352802-1.7174058-1.1622677-1.7513723-1.5361233c-0.0349169-0.3708897,0.2546134-0.7779884,0.7614436-1.0926228
		c0.5100255-0.314064,1.2402797-0.5337639,2.0856686-0.5337639c0.8469105,0,2.1685133,0.1875973,3.3463736,0.400219
		c1.1763783,0.2124691,2.2112255,0.4500427,2.4823484,0.5490112c0,0,1.5756788,0.8127174,3.3211145,1.9060631
		c1.5871677,0.9934635,3.3166294,2.2216473,4.1226883,3.2761593l0.3305721-0.0284138l0.0832233-0.2386417l0.2042904-0.5735035
		c0,0,0.440876,0.3541527,1.1369743,0.6749115c0.6277485,0.2910137,1.4612694,0.5510273,2.366869,0.5010834l0.0545807-0.0035343
		c0.0813599-0.017458,0.1452599-0.0934162,0.1452599-0.1829529c0,0-0.0026245-0.0460625-0.0126266-0.0675926l-0.4375668-0.9219151
		l0.5939331-0.0523758c0.8877602,0.199461,1.4787254,0.4069099,1.431181,0.9653931
		c0.3346786-0.5308342,0.3123913-0.9665337,0.1314945-1.3125095c-0.0089035-0.0340042-0.0260201-0.0642815-0.0490322-0.08638
		l-0.0048313-0.0038795c-0.2065353-0.3287468-0.5564289-0.567955-0.863987-0.7223053l-0.0063152-0.0048294
		c0.7321186,0.0150623,1.2462139,0.147274,1.4709301,0.5339489c0.2265816-1.6982327-2.4764118-1.9272099-3.3641739-1.9132881
		c-0.4483299,0.0384541-0.7789402,0.0850487-1.0333595,0.1420612c-0.4048977-0.1115952-0.810133-0.2590599-1.1674824-0.4206371
		c-0.7291508-0.3320961-1.2710876-0.7211647-1.2710876-0.9912205c0-0.2720718,0.1185207-0.5083141,0.5419369-0.6790199
		c0.4223557-0.1677036,1.151886-0.2694836,2.3724232-0.2694836c1.2213364,0,2.2546997-0.068161,2.9827099-0.4245586
		c0.4334965-0.2115192,0.7596169-0.5278263,0.950901-0.9898891h0.0022449l0.0029659-0.0068836
		c0.0275002-0.068161,0.0538616-0.1389084,0.0757675-0.2156277c0.1508141-0.3045578,0.5731659-0.7790909,1.6867466-0.3840523
		c0.764452,0.2687283,1.4077911,0.2484932,1.4088936,0.6687908l0,0l0.0025864,0.4206409l0.0018673,0.0011406
		c0,0.1045609,0.0052071,0.3203392,0.1091976,0.3203392c0,0,1.0512028,0.6639538,1.5990734,0.1062355
		c-0.1589527,0.213953-0.3792191,0.4102955-0.6752911,0.4903221c-0.7566147,0.2042923,1.7101383,1.0688515,3.1699238,0.2876663
		l-1.2443504,1.1416531c0,0,3.4102745,0.586895,4.2965126-0.3333874c0,0,2.3824654,1.6802425,3.1339035,2.0264473
		c0.751442,0.3439598,0.6050797,0.4115505,0.9534912,0.2330856c0.3495483-0.1807098,0.2258568-0.6372185,1.0456467-0.2330856
		c0.2295494,0.2167301,0.5066414,0.4700489,0.8205147,0.7291508c0.823101,0.6776886,1.8806152,1.3931084,2.8786812,1.6165314
		l0.0557213,0.0089016c0.0769119,0,0.1415329-0.0442009,0.1712379-0.1103058l0.0052147-0.00947l0.143013-0.437376
		l0.0170784-0.0527573l0.0594139-0.1786575c0,0,0.0598297,0.0337791,0.1705132,0.0872955l0.072422,0.0349178
		c0.3157387,0.1491394,0.9345436,0.4143257,1.7554779,0.5972786c1.1693039,0.2607384,2.4723434,0.4379101,3.8273773-0.3406124
		l0.0397072-0.0202732c0.0538597-0.0324821,0.0880547-0.0934162,0.0880547-0.158762
		c0-0.0291729-0.0052109-0.055191-0.018219-0.0798759l-0.0241165-0.0393677l-0.1846237-0.2852707l-0.1760712-0.2748852
		l-0.0222893-0.0337772l-0.1028862-0.1638203l0.1931458-0.0882053l0.0739441-0.0321407l0.7127953-0.322052l0.553463-0.2475758
		l0.079113-0.036211c0.0453033-0.0336227,0.0735245-0.0872955,0.0735245-0.1474648
		c0-0.0657291-0.0349159-0.1233139-0.0842896-0.1569366l-0.1545372-0.0711288l-1.3691483-0.5852222
		c1.1470146-0.5461979,1.9853668-0.7885628,2.4597206-0.1695633c-0.3528633-2.3961983-2.9968262-1.7433834-3.8340759-1.4083233
		c-0.526722,0.2707787-0.8699226,0.4925289-1.0983658,0.698494c-0.4966011,0.2195435-1.1276932,0.3985786-1.8769264,0.3985786
		c-0.9831963,0-2.1053352-0.8745613-3.0086899-1.7996769c-0.9056015-0.926939-1.5875473-1.9030933-1.6882286-2.1053314
		l2.255043,0.2635136l1.596489,0.1886978c0,0,1.1417999,0.301815,1.7324257,0.1524868
		c0.5913429-0.146328-0.8357697-0.3541546-0.0746651-0.7830105c0.3848076-0.2173004,1.3476143,0.0393677,1.6287766-0.0101929
		c0.2785797-0.0490284-0.3651085-0.3519516-0.1834831-0.6788292c0.1790352-0.3276062,1.4315605-0.4643078,1.7781105-0.5965576
		c0.3473053-0.1307297-0.8339043-0.6293831,0.2076378-1.4809341c0.2373428-0.155077,0.5389671-0.3300419,0.9152222-0.4973583
		c1.1953201-0.5339508,3.3006897-1.0006905,5.5475578-0.881258c0.1021614,0,0.186451-0.0835648,0.186451-0.1870232
		c0-0.0585003-0.0263557-0.1092014-0.0697975-0.145792l-0.4869728-0.3528996l-0.9713287-0.7020302
		C58.5617409,15.3971806,59.4847984,15.0556173,60,15.7778835C59.7280769,13.9015274,58.2679482,13.7388477,57.1688194,13.9275408z
		 M48.9487381,5.0262351c0.549736-0.1318746,0.7298737-0.3207579,0.7777977-0.6805029c0,0,0.3105278,0.1807094,0.2265816,0.5003223
		c-0.0668678,0.2280679-0.3420944,0.3134971-0.7391548,0.3878193c0,0.3884964-0.3313332,0.7948771-1.0578957,0.672287
		c-0.5690575-0.1047511-0.5597763-0.4065289-0.5508385-0.5196486c-0.2533531-0.0573997-0.4717598-0.3506579-0.5178223-0.4069095
		C47.3801308,5.1123867,48.400486,5.1595516,48.9487381,5.0262351z M42.335144,4.3169389
		c-0.0063095-0.0027766-0.0119057-0.0066943-0.0170784-0.0101938c0.014492,0,0.0256386,0.0007191,0.0393677,0.0007191
		C42.3503571,4.3102446,42.3429413,4.3141623,42.335144,4.3169389z"/>
</g>
</svg>
