<?xml version="1.0" encoding="utf-8"?>
<!-- Generator: Adobe Illustrator 24.0.2, SVG Export Plug-In . SVG Version: 6.00 Build 0)  -->
<svg version="1.1" id="Layer_1" xmlns="http://www.w3.org/2000/svg" xmlns:xlink="http://www.w3.org/1999/xlink" x="0px" y="0px"
	 viewBox="0 0 182.5 81.6" style="enable-background:new 0 0 182.5 81.6;" xml:space="preserve">
<style type="text/css">
	.st0{fill:#F5B335;}
	.st1{fill:#0047BA;}
	.st2{fill:#878787;}
</style>
<g id="Group_1514">
	<path id="Path_114" class="st0" d="M117.1,13c0.9-0.6,1.8-0.8,2.3-0.4c-0.3-0.8-1.1-1.3-2-1.1c0,0,0,0-0.1,0c0,0-0.1,0-0.1,0
		l-0.1,0.1c-0.3,0.1-0.7,0.2-1,0.4l-2.6,1.1l0-0.1c0.4-1,1.3-1.7,2.4-1.8c-2-1-3.7,1-3.9,1.8c-0.1,0.4-0.1,0.8-0.1,1.1l-0.1,0.4
		c-0.4,0.5-1,0.8-1.6,1c-1,0.3-1.7-1.1-3.2-2.5l-2.2-2.2l0.3,0.1c0.3,0.3,0.7,0.6,1.1,0.9c0.6,0.5,1.3,0.9,2,1.3
		c0.4-0.1,1.1-1.2,0.5-1.9c0.2-0.4,0.2-0.8,0.1-1.2c-0.3,0.2-0.5,0.5-0.7,0.8c-0.8-0.2-1.5-0.9-1.6-1.8c1.2-0.1,2.3,0.4,3.1,1.2
		c0.6,0.7,1.5,1,2.4,0.7c0.6-0.2,1.1-1.3,0.9-1.7c-0.2,0.4-0.4,0.8-0.8,1c-0.9,0.4-1.9,0.1-2.5-0.6c-0.7-0.9-1.8-1.4-3-1.3
		c0.1-0.6,0.6-1,1.2-1c0.9-0.2,1.8,0.1,2.4,0.8c-0.1,0.5-0.2,1-0.2,1.5c0.3-0.2,0.6-0.5,0.7-0.8c0.3,0.1,0.6,0,0.8-0.1
		c0.3-0.4,0.6-0.9,0.7-1.4c-0.2-0.1-0.3-0.1-0.5-0.2l0.1-0.2c0.2,0.1,0.4,0.2,0.6,0.2c0.2,0,0.4-0.2,0.6-0.4
		c0.2-0.2,0.3-0.6,0.1-0.9c-0.1-0.3-1.5-0.7-1.5-0.7l0,0c-0.4-0.3-0.8-0.5-1.2-0.7c-0.3-0.6-0.7-1.1-1.3-1.3
		c-0.6-0.3-1.2-0.6-1.5-0.8c-0.4-0.9-1.2-1.6-2.2-1.8c-0.7,0-0.6-0.1-0.9,0c0.8,0.3,1.4,1.1,1.4,2c-0.7-1-1.6-1.9-2.7-2.4
		c-0.6,0.7-0.8,1.6-0.6,2.5c0.1,0.6,0.6,1,1.1,1.4c-0.6-0.2-1.1-0.4-1.4-1c-0.2-0.5-0.2-1.1,0-1.6c-0.9,0.2-2.3,0-2.8-1.1
		c-0.1,0.6,0,1.2,0.3,1.7c0.1,0.1,0.2,0.3,0.3,0.4c-0.9-0.1-2.6-0.3-3.4-0.4c0.1,0.6,1.6,1.1,1.5,2.2c-1.5-0.2-2.6-0.5-2.8-0.9
		c-0.2,0.8,0.5,1.6,1.5,2.2c-1.1,0.8-2.2-0.6-2.6-0.6c0.3,0.8,0.8,1.9,1.5,2.1c-0.9,0.2-1.5,0.2-1.7-0.2c0,0.7,0.4,1.4,1,1.8
		c-1.4-0.5-2.1,0.3-2.8,0.1c0.7,0.6,1.5,1.1,2.4,1.5c-1.3,0.5-3,1-3.3,0.5c0.1,1.9,2.8,1.5,3.7,2.2c-0.4,0.1-1.1,0.2-1.8,0.2
		c-1.2,0-2.4-0.2-3.5-0.7c-5.2-3.1-8.4-2.5-10.7-1.7c-1,0.5-1.9,1.2-2.6,2.1c-0.4,0-0.7,0-1.2,0c-1.5,0.1-3.1-0.1-4.5-0.5
		c-1.2-0.4-2.1-1.1-2.1-2.2c0-0.8,0.4-1.6,1.2-1.9c0.4-0.2,0.8-0.3,1.2-0.3c2.3-0.1,4.6,0.1,6.8,0.7c2.4,0.9,5,1.3,7.5,1.4
		c3.2,0,4.9-0.9,5.8-1.9c0.6-0.7,1-1.6,1-2.6c0-0.9-0.3-1.8-1-2.4c-0.7-0.8-2.1-1.4-4.6-1.4c-1.8,0-3.6,0.2-5.3,0.7
		c-1.1,0-2.1-0.7-2.6-1.8c-0.5,1.2,0,2.7,1.3,3.2c0,0,0,0,0,0L80.5,4c-0.5,0-1-0.3-1.3-0.7c0.1,2.9,3.5,2.5,4.6,2.2
		C84.3,5.4,84.6,5.2,85,5c0.6-0.1,1.1-0.4,1.6-0.6c0.7-0.4,1.4-0.7,2.2-0.8c0.6-0.1,1.2,0.1,1.7,0.5c0.4,0.4,0.6,0.8,0.5,1.4
		c0,0.7-0.3,1.4-0.7,1.9c-0.7,0.8-2,1.5-4.6,1.5c-2.5-0.1-5-0.6-7.3-1.5c-2.2-0.6-4.6-0.9-6.9-0.8c-2.3,0-3.5,0.8-4.1,1.6
		c-0.4,0.5-0.7,1.2-0.7,1.9c-0.1,0.9,0.3,1.8,1,2.5c1,1.1,3.2,2.1,7.7,2.2h0c0.1,0,0.2,0.1,0.2,0.2c0,0,0,0,0,0v0c0,0,0,0,0,0.1
		c-0.3,0.7-0.7,1.3-1.2,1.9c-0.8,1.2-2.1,2-3.5,2.1c-1,0-1.9,0-2.5-0.1c-0.9-0.2-1.7-0.5-2.4-1c0,0-0.1,0.2,0.4,0.9
		c0,0.1,0.1,0.1,0.1,0.2c-0.3,0.2-0.7,0.3-1.1,0.3h-0.1c-0.1,0-0.2,0.1-0.2,0.2c0,0,0,0.1,0,0.1l0,0l0.1,0.1
		c0.1,0.1,0.3,0.3,0.2,0.4S65,20,65,20h-0.3c-0.1,0-0.2,0.1-0.2,0.2c0,0,0,0,0,0c0,0,0,0.1,0,0.1l0,0l0.2,0.2l0.1,0.1
		c0,0,0.2,0.3-0.1,0.4h-0.4c-0.1,0-0.2,0.1-0.2,0.2c0,0,0,0,0,0c0,0,0,0.1,0,0.1l0,0l0.2,0.2c0.2,0.3,0.2,0.7,0,1L64.2,23l-0.5,0.9
		l0,0c0,0,0,0,0,0.1c0,0.1,0.1,0.2,0.2,0.2c0,0,0,0,0,0h1c0,0.5,0.1,1.1,0.3,1.5c0.4,1,1.3,1.7,2.3,2h0c0.1,0,0.1-0.1,0.2-0.1v0
		l0-0.2l0.1-0.4l0.9,0.2l0.8,0.1c0.1,0,0.2-0.1,0.2-0.1v0l0-0.3l0-0.3c1,0.2,1.7,0.4,1.6,1c0.8-1.3-0.6-2-1.1-2.1
		c-0.2-0.1-0.5-0.3-0.8-0.5c-0.8-0.5-1.6-1.1-1.6-1.4s0.2-0.7,0.7-1c0.6-0.3,1.3-0.5,2-0.5c1,0,2.1,0.2,3.1,0.4
		c0.8,0.1,1.6,0.3,2.3,0.5c0,0,1.5,0.8,3.1,1.8c1.4,0.8,2.7,1.9,3.8,3.1l0.3,0l0.1-0.2l0.2-0.5c0.3,0.2,0.7,0.5,1.1,0.6
		c0.7,0.3,1.4,0.5,2.2,0.5h0c0.1,0,0.1-0.1,0.1-0.2c0,0,0,0,0-0.1l-0.4-0.9l0.6,0c0.8,0.2,1.4,0.4,1.3,0.9c0.3-0.4,0.3-0.8,0.1-1.2
		c0,0,0-0.1,0-0.1l0,0c-0.2-0.3-0.5-0.5-0.8-0.7l0,0c0.7,0,1.2,0.1,1.4,0.5c0.2-1.6-2.3-1.8-3.1-1.8c-0.4,0-0.7,0.1-1,0.1
		c-0.4-0.1-0.7-0.2-1.1-0.4c-0.7-0.3-1.2-0.7-1.2-0.9c0-0.2,0.1-0.5,0.5-0.6c0.7-0.2,1.5-0.3,2.2-0.2c0.9,0.1,1.9-0.1,2.8-0.4
		c0.4-0.2,0.7-0.5,0.9-0.9l0,0c0-0.1,0-0.1,0.1-0.2c0.1-0.3,0.5-0.7,1.6-0.4c0.7,0.2,1.3,0.2,1.3,0.6l0,0v0.4l0,0
		c0,0.1,0,0.3,0.1,0.3c0,0,1,0.6,1.5,0.1c-0.2,0.2-0.4,0.4-0.6,0.5c-0.7,0.2,1.6,1,3,0.3l-1.2,1.1c0,0,3.2,0.5,4-0.3
		c0.9,0.7,1.9,1.3,2.9,1.9c0.7,0.3,0.6,0.4,0.9,0.2s0.2-0.6,1-0.2c0.2,0.2,0.5,0.4,0.8,0.7c0.8,0.7,1.7,1.2,2.7,1.5h0.1
		c0.1,0,0.1,0,0.2-0.1l0,0l0.1-0.4l0,0l0.1-0.2c0.1,0,0.1,0.1,0.2,0.1l0.1,0c0.5,0.3,1.1,0.4,1.6,0.6c1.2,0.4,2.5,0.3,3.6-0.3l0,0
		c0.1,0,0.1-0.1,0.1-0.1c0,0,0-0.1,0-0.1l0,0l-0.2-0.3l-0.2-0.2l0,0l-0.1-0.1l0.2-0.1l0.1,0l0.7-0.3l0.5-0.2l0.1,0
		c0,0,0.1-0.1,0.1-0.1c0-0.1,0-0.1-0.1-0.1l-0.1-0.1l-1.3-0.5c1.1-0.5,1.9-0.7,2.3-0.2c-0.3-2.2-2.8-1.6-3.6-1.3
		c-0.4,0.2-0.7,0.4-1,0.6c-0.5,0.2-1.1,0.4-1.7,0.4c-1.1-0.2-2.1-0.8-2.8-1.7c-0.6-0.6-1.1-1.3-1.6-2l2.1,0.2l1.5,0.2
		c0.5,0.2,1.1,0.2,1.6,0.1c0.6-0.1-0.8-0.3-0.1-0.7c0.4-0.2,1.3,0,1.5,0c0.3,0-0.3-0.3-0.2-0.6s1.3-0.4,1.7-0.6s-0.8-0.6,0.2-1.4
		c0.3-0.2,0.6-0.3,0.9-0.5c1.6-0.6,3.4-0.9,5.2-0.8c0.1,0,0.2-0.1,0.2-0.2c0,0,0,0,0,0c0-0.1,0-0.1-0.1-0.1l-0.5-0.3l-0.9-0.7
		c1.2-0.6,2-0.9,2.5-0.3C119.5,13,118.2,12.8,117.1,13z M109.5,4.7c0.5-0.1,0.7-0.3,0.7-0.6c0.2,0.1,0.2,0.3,0.2,0.5
		c-0.1,0.2-0.3,0.3-0.7,0.4c0,0.4-0.3,0.7-1,0.6c-0.5-0.1-0.5-0.4-0.5-0.5c-0.2-0.1-0.4-0.2-0.5-0.4C108.3,4.8,108.9,4.8,109.5,4.7z
		"/>
	<g id="Group_1511" transform="translate(0 33.173)">
		<path id="Path_115" class="st1" d="M6.1,16.4c-2.5,0-4.5-0.5-6.1-2.1l2.5-2.5c1,0.8,2.3,1.2,3.6,1.1c1.6,0,2.3-0.5,2.3-1.5
			c0-0.3-0.1-0.7-0.3-1c-0.3-0.3-0.7-0.4-1.1-0.4l-2-0.3C3.9,9.7,2.8,9.2,1.9,8.4C1.1,7.5,0.7,6.3,0.8,5.1C0.8,2.2,3,0,6.7,0
			c2-0.2,4,0.5,5.4,1.9L9.6,4.4c-0.8-0.7-2-1.1-3.1-1c-1.4,0-2,0.8-2,1.5c0,0.3,0.1,0.6,0.3,0.7C5.2,6,5.6,6.2,6,6.2l2,0.3
			c1.2,0.1,2.3,0.6,3.2,1.3c0.9,1,1.3,2.3,1.2,3.6C12.4,14.7,9.5,16.4,6.1,16.4z"/>
		<path id="Path_116" class="st1" d="M21.7,3.7v12.6h-4V3.7h-4V0.1h11.9v3.6H21.7z"/>
		<path id="Path_117" class="st1" d="M35.1,16.3l-0.7-2.4h-5l-0.8,2.4h-4.2l5.9-16.2h3.1l5.9,16.2H35.1z M32,6.3l-1.5,4.3h2.8
			L32,6.3z"/>
		<path id="Path_118" class="st1" d="M44.7,3.7v2.8h6v3.5h-6v6.3h-4V0.1h11v3.6L44.7,3.7L44.7,3.7z"/>
		<path id="Path_119" class="st1" d="M57.6,3.7v2.8h6v3.5h-6v6.3h-4V0.1h11v3.6L57.6,3.7L57.6,3.7z"/>
		<path id="Path_120" class="st1" d="M76.7,14.6c-1.2,1.2-2.8,1.9-4.5,1.8c-1.7,0.1-3.3-0.6-4.5-1.8c-1.7-1.7-1.6-4-1.6-6.4
			s-0.1-4.7,1.6-6.4c1.2-1.2,2.8-1.9,4.5-1.8c1.7-0.1,3.3,0.6,4.5,1.8c1.7,1.7,1.6,4,1.6,6.4C78.3,10.7,78.4,12.9,76.7,14.6z
			 M73.8,4.2c-0.4-0.5-1-0.7-1.6-0.7c-0.6,0-1.2,0.2-1.6,0.7c-0.4,0.5-0.6,1-0.6,4s0.2,3.5,0.6,3.9c0.4,0.5,1,0.7,1.6,0.7
			c0.6,0,1.2-0.3,1.6-0.7c0.4-0.5,0.6-1,0.6-3.9S74.1,4.7,73.8,4.2L73.8,4.2z"/>
		<path id="Path_121" class="st1" d="M88.8,16.3l-2.9-6h-1.4v6h-4V0.1H87c2.8-0.2,5.3,1.9,5.5,4.8c0,0.1,0,0.3,0,0.4
			c0,1.8-1,3.4-2.6,4.2l3.5,6.8L88.8,16.3z M86.9,3.7h-2.3V7h2.2c0.9,0,1.7-0.6,1.7-1.6c0,0,0-0.1,0-0.1c0-0.9-0.7-1.6-1.6-1.6
			C86.9,3.7,86.9,3.7,86.9,3.7L86.9,3.7z"/>
		<path id="Path_122" class="st1" d="M105.4,14.7c-1.2,1.1-2.8,1.7-4.4,1.6h-6V0.1h6c1.6-0.1,3.2,0.5,4.4,1.6
			c1.9,1.9,1.7,3.9,1.7,6.5S107.3,12.8,105.4,14.7z M102.7,4.6c-0.4-0.6-1.2-1-1.9-0.9H99v9.1h1.7c0.8,0.1,1.5-0.3,1.9-0.9
			c0.3-0.5,0.4-0.9,0.4-3.6C103.1,5.5,103,5.1,102.7,4.6z"/>
		<path id="Path_123" class="st1" d="M123.1,16.3V9.9h-4.2v6.4h-4V0.1h4v6.2h4.2V0.1h4v16.2L123.1,16.3z"/>
		<path id="Path_124" class="st1" d="M140.1,14.6c-1.2,1.2-2.8,1.9-4.5,1.8c-1.7,0.1-3.3-0.6-4.5-1.8c-1.7-1.7-1.6-4-1.6-6.4
			s-0.1-4.7,1.6-6.4c1.2-1.2,2.8-1.9,4.5-1.8c1.7-0.1,3.3,0.6,4.5,1.8c1.7,1.7,1.6,4,1.6,6.4C141.7,10.7,141.8,12.9,140.1,14.6z
			 M137.1,4.2c-0.4-0.5-1-0.7-1.6-0.7c-0.6,0-1.2,0.2-1.6,0.7c-0.4,0.5-0.6,1-0.6,4s0.2,3.5,0.6,3.9c0.4,0.5,1,0.7,1.6,0.7
			c0.6,0,1.2-0.3,1.6-0.7c0.4-0.5,0.6-1,0.6-3.9S137.5,4.7,137.1,4.2L137.1,4.2z"/>
		<path id="Path_125" class="st1" d="M149.9,16.4c-3.4,0-6.1-2.3-6.1-5.8V0.1h4v10.4c-0.2,1.1,0.6,2.2,1.8,2.3c0.1,0,0.3,0,0.4,0
			c1.2,0,2.2-0.9,2.2-2c0-0.1,0-0.2,0-0.3V0.1h4v10.5C156,14.2,153.2,16.4,149.9,16.4z"/>
		<path id="Path_126" class="st1" d="M163.2,16.4c-2.5,0-4.5-0.5-6.1-2.1l2.5-2.5c1,0.8,2.3,1.2,3.6,1.1c1.6,0,2.3-0.5,2.3-1.5
			c0-0.3-0.1-0.7-0.3-1c-0.3-0.3-0.7-0.4-1.1-0.4l-2-0.3c-1.2-0.1-2.4-0.6-3.2-1.4c-0.8-0.9-1.2-2.1-1.1-3.2c0-3,2.2-5.1,5.9-5.1
			c2-0.2,4,0.5,5.4,1.9l-2.5,2.5c-0.8-0.7-2-1.1-3.1-1c-1.4,0-2,0.8-2,1.5c0,0.3,0.1,0.6,0.3,0.7c0.3,0.3,0.7,0.5,1.1,0.5l2,0.3
			c1.2,0.1,2.3,0.6,3.2,1.3c0.9,1,1.3,2.3,1.2,3.6C169.4,14.7,166.6,16.4,163.2,16.4z"/>
		<path id="Path_127" class="st1" d="M171.5,16.3V0.1h11v3.6h-7v2.7h6V10h-6v2.8h7v3.6L171.5,16.3z"/>
	</g>
	<g id="Group_1512" transform="translate(33.214 54.935)">
		<path id="Path_128" class="st0" d="M0,11.8V0.1h1.8v11.7H0z"/>
		<path id="Path_129" class="st0" d="M11.5,11.8L6.1,3.5v8.3H4.3V0.1h1.6l5.4,8.2V0.1h1.8v11.7H11.5z"/>
		<path id="Path_130" class="st0" d="M19.8,1.7v10.1h-1.8V1.7h-3.2V0.1h8.2v1.6H19.8z"/>
		<path id="Path_131" class="st0" d="M24.8,11.8V0.1h7.5v1.6h-5.7v3.4h4.9v1.6h-4.9v3.5h5.7v1.6H24.8z"/>
		<path id="Path_132" class="st0" d="M40.6,11.8l-2.5-4.9h-2.2v4.9h-1.8V0.1h4.5c1.8-0.2,3.5,1.2,3.6,3.1c0,0.1,0,0.2,0,0.4
			C42.4,5,41.4,6.3,40,6.6l2.7,5.2H40.6z M38.6,1.7h-2.6v3.7h2.6c1,0.1,1.9-0.6,2-1.6c0-0.1,0-0.2,0-0.3c0-1-0.8-1.8-1.8-1.9
			C38.7,1.7,38.7,1.7,38.6,1.7z"/>
		<path id="Path_133" class="st0" d="M51.7,11.8l-5.4-8.3v8.3h-1.8V0.1h1.6l5.4,8.2V0.1h1.8v11.7H51.7z"/>
		<path id="Path_134" class="st0" d="M63,11.8l-0.8-2.3h-4.6l-0.8,2.3h-1.9l4.3-11.7h1.4l4.3,11.7H63z M59.9,2.7l-1.8,5.2h3.6
			L59.9,2.7z"/>
		<path id="Path_135" class="st0" d="M69.2,1.7v10.1h-1.8V1.7h-3.2V0.1h8.2v1.6H69.2z"/>
		<path id="Path_136" class="st0" d="M74.2,11.8V0.1h1.8v11.7H74.2z"/>
		<path id="Path_137" class="st0" d="M85.4,10.6c-0.8,0.8-1.9,1.3-3.1,1.2c-1.2,0-2.3-0.4-3.1-1.2c-1.1-1.1-1.1-2.5-1.1-4.7
			s0-3.6,1.1-4.7C80.1,0.4,81.2,0,82.3,0c1.2,0,2.3,0.4,3.1,1.2c1.1,1.1,1.1,2.5,1.1,4.7S86.6,9.5,85.4,10.6z M84.1,2.3
			c-0.5-0.5-1.1-0.7-1.7-0.7c-0.7,0-1.3,0.3-1.7,0.7c-0.6,0.6-0.7,1.3-0.7,3.6s0.1,3,0.7,3.6c0.5,0.5,1.1,0.7,1.7,0.7
			c0.7,0,1.3-0.3,1.7-0.7c0.6-0.6,0.7-1.3,0.7-3.6S84.7,2.9,84.1,2.3z"/>
		<path id="Path_138" class="st0" d="M95.9,11.8l-5.4-8.3v8.3h-1.8V0.1h1.6l5.4,8.2V0.1h1.8v11.7H95.9z"/>
		<path id="Path_139" class="st0" d="M107.3,11.8l-0.8-2.3h-4.6l-0.8,2.3h-1.9l4.3-11.7h1.4l4.3,11.7H107.3z M104.2,2.7l-1.8,5.2
			h3.6L104.2,2.7z"/>
		<path id="Path_140" class="st0" d="M110.7,11.8V0.1h1.8v10.1h5.7v1.6L110.7,11.8z"/>
	</g>
	<g id="Group_1513" transform="translate(41.882 70.98)">
		<path id="Path_141" class="st2" d="M0,8V0h5v0.8H0.9v2.8h3.5v0.8H0.9v2.9H5V8L0,8z"/>
		<path id="Path_142" class="st2" d="M9.7,8L8.4,5.9L7.1,8h-1L8,5.2L6.2,2.5h1l1.3,2.1l1.2-2.1h1L8.8,5.2L10.7,8H9.7z"/>
		<path id="Path_143" class="st2" d="M15.7,7.6c-0.4,0.3-0.9,0.5-1.4,0.5c-0.6,0-1.2-0.2-1.6-0.7v3.1H12v-8h0.8v0.6
			c0.4-0.5,0.9-0.8,1.6-0.7c0.5,0,1,0.2,1.4,0.5c0.5,0.7,0.8,1.5,0.7,2.3C16.4,6.1,16.2,6.9,15.7,7.6z M14.2,3.2
			c-1.2,0-1.4,1-1.4,2.1s0.2,2.1,1.4,2.1s1.4-1,1.4-2.1S15.4,3.2,14.2,3.2z"/>
		<path id="Path_144" class="st2" d="M19.3,8c-0.7,0.1-1.4-0.5-1.4-1.2c0-0.1,0-0.2,0-0.3V0h0.8v6.5c0,0.5,0.2,0.8,0.7,0.8h0.4V8
			L19.3,8z"/>
		<path id="Path_145" class="st2" d="M24.6,7.5c-0.9,0.8-2.3,0.8-3.2,0c-0.5-0.6-0.8-1.4-0.7-2.2c-0.1-0.8,0.2-1.6,0.7-2.2
			c0.9-0.8,2.3-0.8,3.2,0C25.5,4.4,25.5,6.2,24.6,7.5L24.6,7.5z M24,3.6c-0.3-0.3-0.6-0.4-1-0.4c-0.4,0-0.7,0.1-1,0.4
			c-0.4,0.5-0.5,1.1-0.5,1.7C21.4,5.9,21.6,6.5,22,7c0.6,0.6,1.5,0.6,2,0C24.6,5.9,24.6,4.6,24,3.6L24,3.6z"/>
		<path id="Path_146" class="st2" d="M29.8,3.6c-0.2-0.3-0.6-0.4-1-0.4c-0.8,0-1.3,0.6-1.3,1.4c0,0,0,0.1,0,0.1V8h-0.8V2.5h0.8v0.7
			c0.4-0.5,0.9-0.8,1.6-0.7c0.5,0,1,0.2,1.3,0.5L29.8,3.6z"/>
		<path id="Path_147" class="st2" d="M31.9,5.5c0,1.2,0.6,1.9,1.6,1.9c0.6,0,1.1-0.2,1.5-0.6l0.6,0.5c-0.5,0.6-1.3,0.9-2,0.9
			c-1.5,0-2.4-0.9-2.4-2.8c0-1.8,0.9-2.8,2.3-2.8c1.4,0,2.3,1,2.3,2.7v0.4L31.9,5.5L31.9,5.5z M34.6,3.9c-0.3-0.7-1.2-1-1.9-0.7
			c-0.3,0.1-0.6,0.4-0.7,0.7c-0.1,0.3-0.2,0.6-0.2,0.9h2.9C34.8,4.6,34.7,4.2,34.6,3.9L34.6,3.9z"/>
		<path id="Path_148" class="st2" d="M41.5,9.4c-0.1,0.2-0.2,0.5-0.4,0.6c-0.3,0.3-0.7,0.4-1.1,0.4h-0.4V9.7h0.2
			c0.6,0,0.7-0.2,0.9-0.7l0.4-1.1l-2-5.4h0.9l1.5,4.4l1.5-4.4H44L41.5,9.4z"/>
		<path id="Path_149" class="st2" d="M48.5,7.5c-0.9,0.8-2.3,0.8-3.2,0c-0.5-0.6-0.8-1.4-0.7-2.2c-0.1-0.8,0.2-1.6,0.7-2.2
			c0.9-0.8,2.3-0.8,3.2,0C49.4,4.4,49.4,6.2,48.5,7.5L48.5,7.5z M48,3.6c-0.3-0.3-0.6-0.4-1-0.4c-0.4,0-0.7,0.1-1,0.4
			c-0.4,0.5-0.5,1.1-0.5,1.7c-0.1,0.6,0.1,1.2,0.5,1.7c0.6,0.6,1.5,0.6,2,0C48.5,5.9,48.5,4.6,48,3.6L48,3.6z"/>
		<path id="Path_150" class="st2" d="M54.2,8V7.4c-0.4,0.4-1,0.7-1.6,0.7c-0.5,0-1-0.2-1.4-0.5c-0.4-0.4-0.6-1-0.6-1.6V2.5h0.8v3.4
			c0,1,0.5,1.5,1.4,1.5c0.7,0,1.4-0.5,1.4-1.2c0-0.1,0-0.2,0-0.3V2.5H55V8L54.2,8z"/>
		<path id="Path_151" class="st2" d="M59.9,3.6c-0.2-0.3-0.6-0.4-1-0.4c-0.8,0-1.3,0.6-1.3,1.4c0,0,0,0.1,0,0.1V8h-0.8V2.5h0.8v0.7
			c0.4-0.5,0.9-0.8,1.6-0.7c0.5,0,1,0.2,1.3,0.5L59.9,3.6z"/>
		<path id="Path_152" class="st2" d="M64.5,8V0h5v0.8h-4.1v2.8h3.5v0.8h-3.5v2.9h4.1V8L64.5,8z"/>
		<path id="Path_153" class="st2" d="M74.4,8V4.6c0.1-0.8-0.5-1.4-1.3-1.5s-1.4,0.5-1.5,1.3c0,0.1,0,0.1,0,0.2V8h-0.8V2.5h0.8v0.6
			c0.4-0.5,1-0.7,1.6-0.7c0.5,0,1,0.2,1.4,0.5c0.4,0.4,0.6,1,0.6,1.5V8L74.4,8L74.4,8z"/>
		<path id="Path_154" class="st2" d="M78.8,10.6c-0.7,0-1.4-0.2-1.9-0.7l0.5-0.5c0.3,0.4,0.8,0.6,1.3,0.6c1.1,0,1.5-0.7,1.5-1.7V7.3
			c-0.4,0.5-0.9,0.8-1.6,0.7c-0.5,0-1-0.2-1.3-0.5c-0.9-1.4-0.9-3.2,0-4.6c0.4-0.3,0.9-0.5,1.4-0.5c0.6,0,1.2,0.2,1.6,0.7V2.5H81
			v5.7c0.1,1.2-0.8,2.3-2,2.4C79,10.6,78.9,10.6,78.8,10.6z M78.9,3.2c-1.2,0-1.4,1-1.4,2.1s0.2,2.1,1.4,2.1s1.4-1,1.4-2.1
			S80.1,3.2,78.9,3.2L78.9,3.2z"/>
		<path id="Path_155" class="st2" d="M84.2,8c-0.7,0.1-1.4-0.5-1.4-1.2c0-0.1,0-0.2,0-0.3V0h0.8v6.5c0,0.5,0.2,0.8,0.7,0.8h0.4V8
			L84.2,8z"/>
		<path id="Path_156" class="st2" d="M86,0.9V0h0.9v0.9H86z M86,8V2.5h0.8V8H86z"/>
		<path id="Path_157" class="st2" d="M90.4,8.1c-0.8,0.1-1.7-0.2-2.3-0.8l0.5-0.5c0.5,0.4,1.1,0.7,1.7,0.6c0.9,0,1.5-0.3,1.5-1
			c0-0.5-0.3-0.7-0.9-0.8L90,5.5C88.9,5.5,88.4,5,88.4,4c0-1,0.9-1.6,2-1.6c0.7,0,1.4,0.2,2,0.6l-0.5,0.5c-0.4-0.3-0.9-0.5-1.5-0.4
			c-0.8,0-1.2,0.4-1.2,0.9c0,0.5,0.3,0.7,1,0.8L91,4.9c1,0.1,1.6,0.5,1.6,1.5C92.6,7.5,91.7,8.1,90.4,8.1z"/>
		<path id="Path_158" class="st2" d="M97.5,8V4.6c0.1-0.7-0.4-1.3-1.1-1.4c-0.1,0-0.2,0-0.3,0c-0.7-0.1-1.3,0.5-1.4,1.2
			c0,0.1,0,0.2,0,0.2V8h-0.8V0h0.8v3.1c0.4-0.4,1-0.7,1.6-0.7c1-0.1,1.9,0.7,2,1.7c0,0.1,0,0.2,0,0.3V8L97.5,8z"/>
	</g>
</g>
</svg>
